<svg clip-rule="evenodd" fill-rule="evenodd" stroke-linejoin="round" stroke-miterlimit="2" viewBox="0 0 1000 1000"
     xmlns="http://www.w3.org/2000/svg" xmlns:xlink="http://www.w3.org/1999/xlink">
    <linearGradient id="a" gradientTransform="matrix(1 180.932 -49.9747 .276207 510 810.068)"
                    gradientUnits="userSpaceOnUse" x1="0" x2="1" y1="0" y2="0">
        <stop offset="0" stop-color="#fff"/>
        <stop offset="1" stop-color="#e1e1e1"/>
    </linearGradient>
    <radialGradient id="b" cx="0" cy="0" gradientTransform="matrix(-240.274 0 .5725 -98.398 500.572 830.663)"
                    gradientUnits="userSpaceOnUse" r="1">
        <stop offset="0" stop-color="#404040"/>
        <stop offset="1" stop-color="#ededed"/>
    </radialGradient>
    <linearGradient id="c" gradientTransform="matrix(0 -50.4497 50.4497 0 500.572 982.332)"
                    gradientUnits="userSpaceOnUse" x1="0" x2="1" y1="0" y2="0">
        <stop offset="0" stop-color="#e6e6e6"/>
        <stop offset="1" stop-color="#fff"/>
    </linearGradient>
    <linearGradient id="d">
        <stop offset="0" stop-color="#ccc"/>
        <stop offset="1" stop-color="#e6e6e6"/>
    </linearGradient>
    <radialGradient id="e" cx="0" cy="0" gradientTransform="matrix(43.3409 44.4487 -91.4507 89.1716 733.119 918.31)"
                    gradientUnits="userSpaceOnUse" r="1" xlink:href="#d"/>
    <linearGradient id="f" gradientTransform="matrix(-92.421 -78.772 78.772 -92.421 868.421 968.772)"
                    gradientUnits="userSpaceOnUse" x1="0" x2="1" y1="0" y2="0">
        <stop offset="0" stop-color="#e0e0e0"/>
        <stop offset="1" stop-color="#fff"/>
    </linearGradient>
    <linearGradient id="g" gradientTransform="matrix(-65.421 -10.252 10.252 -65.421 868.421 970.252)"
                    gradientUnits="userSpaceOnUse" x1="0" x2="1" y1="0" y2="0">
        <stop offset="0" stop-color="#6c6c6c"/>
        <stop offset="1" stop-color="#d6d6d6"/>
    </linearGradient>
    <radialGradient id="h" cx="0" cy="0" gradientTransform="matrix(-43.2922 44.4317 91.4838 89.1376 271.466 918.31)"
                    gradientUnits="userSpaceOnUse" r="1" xlink:href="#d"/>
    <linearGradient id="i" gradientTransform="matrix(92.568 -49.966 49.966 92.568 136.265 955)"
                    gradientUnits="userSpaceOnUse" x1="0" x2="1" y1="0" y2="0">
        <stop offset="0" stop-color="#e5e5e5"/>
        <stop offset="1" stop-color="#f9f9f9"/>
    </linearGradient>
    <linearGradient id="j" gradientTransform="matrix(84.833 22.748 -34.1007 127.17 144 970.252)"
                    gradientUnits="userSpaceOnUse" x1="0" x2="1" y1="0" y2="0">
        <stop offset="0" stop-color="#562782"/>
        <stop offset="1" stop-color="#94278f"/>
    </linearGradient>
    <linearGradient id="k" gradientUnits="userSpaceOnUse" x1="257.437" x2="740.275" y1="824.271" y2="824.271">
        <stop offset="0" stop-color="#ccc"/>
        <stop offset=".5" stop-color="#f2f2f2"/>
        <stop offset="1" stop-color="#ccc"/>
    </linearGradient>
    <radialGradient id="l" cx="0" cy="0" gradientTransform="matrix(237.231 0 0 39.1804 498.856 784.698)"
                    gradientUnits="userSpaceOnUse" r="1">
        <stop offset="0" stop-color="#e6e6e6"/>
        <stop offset=".5" stop-color="#808080"/>
        <stop offset="1" stop-color="#e6e6e6"/>
    </radialGradient>
    <radialGradient id="m" cx="0" cy="0" gradientTransform="matrix(381.828 -1.17461 1.17461 381.828 500.572 437.643)"
                    gradientUnits="userSpaceOnUse" r="1">
        <stop offset="0" stop-color="#fff"/>
        <stop offset=".74" stop-color="#fff"/>
        <stop offset=".97" stop-color="#d8d8d8"/>
        <stop offset="1" stop-color="#b3b3b3"/>
    </radialGradient>
    <linearGradient id="n" gradientUnits="userSpaceOnUse" x1="360.98" x2="639.599" y1="153.89" y2="153.89">
        <stop offset="0" stop-color="#ddd"/>
        <stop offset=".23" stop-color="#383838"/>
        <stop offset=".5"/>
        <stop offset=".8" stop-color="#494949"/>
        <stop offset="1" stop-color="#ddd"/>
    </linearGradient>
    <linearGradient id="o" gradientTransform="matrix(0 -170.783 170.783 0 500 222.806)" gradientUnits="userSpaceOnUse"
                    x1="0" x2="1" y1="0" y2="0">
        <stop offset="0" stop-color="#fff"/>
        <stop offset="1" stop-color="#e8e8e8"/>
    </linearGradient>
    <radialGradient id="p" cx="500.572" cy="437.643" gradientUnits="userSpaceOnUse" r="354.832">
        <stop offset="0"/>
        <stop offset=".8" stop-color="#242424"/>
        <stop offset=".98" stop-color="#666"/>
        <stop offset="1" stop-color="#666"/>
    </radialGradient>
    <radialGradient id="q" cx="500" cy="461.098" gradientUnits="userSpaceOnUse" r="271.167">
        <stop offset="0" stop-color="#fcee21"/>
        <stop offset=".88" stop-color="#e8a80f"/>
        <stop offset="1" stop-color="#d97000"/>
    </radialGradient>
    <linearGradient id="r">
        <stop offset="0" stop-color="#b56a00"/>
        <stop offset="1" stop-color="#7a4800"/>
    </linearGradient>
    <radialGradient id="s" cx="0" cy="0" gradientTransform="matrix(63.166 0 0 27.3788 500 635.584)"
                    gradientUnits="userSpaceOnUse" r="1" xlink:href="#r"/>
    <radialGradient id="t" cx="0" cy="0" gradientTransform="matrix(45.8943 .00312483 -.00824373 17.2807 593.66 449.399)"
                    gradientUnits="userSpaceOnUse" r="1" xlink:href="#r"/>
    <radialGradient id="u" cx="0" cy="0" gradientTransform="matrix(31.913 0 0 49.1655 406.178 455.378)"
                    gradientUnits="userSpaceOnUse" r="1" xlink:href="#r"/>
    <linearGradient id="v" gradientTransform="matrix(0 -341.994 341.994 0 500.572 457.879)"
                    gradientUnits="userSpaceOnUse" x1="0" x2="1" y1="0" y2="0">
        <stop offset="0" stop-color="#2288ff"/>
        <stop offset="1" stop-color="#003388"/>
    </linearGradient>
    <linearGradient id="w">
        <stop offset="0" stop-color="#ccc"/>
        <stop offset=".5" stop-color="#fff"/>
        <stop offset="1" stop-color="#ccc"/>
    </linearGradient>
    <linearGradient id="x" gradientTransform="matrix(0 -73.0754 73.0754 0 136.728 456.237)"
                    gradientUnits="userSpaceOnUse" x1="0" x2="1" xlink:href="#w" y1="0" y2="0"/>
    <linearGradient id="y" gradientTransform="matrix(0 -73.0754 -73.0754 0 863.272 456.237)"
                    gradientUnits="userSpaceOnUse" x1="0" x2="1" xlink:href="#w" y1="0" y2="0"/>
    <path d="m296.387 810.068c-77.119 0-139.637 62.518-139.637 139.636v50.296h687.643v-50.296c0-77.118-62.517-139.636-139.635-139.636z"
          fill="url(#a)" fill-rule="nonzero"/>
    <ellipse cx="500.572" cy="830.663" fill="url(#b)" rx="239.702" ry="98.398"/>
    <ellipse cx="500.572" cy="830.663" fill="none" rx="239.702" ry="98.398"/>
    <path d="m355.836 929.061h289.473v70.939h-289.473z" fill="url(#c)"/>
    <g fill-rule="nonzero">
        <path d="m720.824 1000h10.589c12.713-77.779 43.481-137.918 79.735-140.618 7.353.632 14.153 4.027 19.867 9.419-6.736-11.906-17.032-19.857-28.71-20.861-38.033 2.833-70.034 68.662-81.481 152.06z"
              fill="url(#e)"/>
        <path d="m728.636 1000h139.785l-8.843-84.668c0-28.625-28.7-56.465-49.314-58.239-38.201 2.845-70.311 61.92-81.628 142.907z"
              fill="url(#f)"/>
        <path d="m844.026 937.979-34.726 6.153c-15.299 2.713-25.503 17.312-22.792 32.611l2.76 15.575c.485 2.739 1.358 5.314 2.542 7.682h76.611l-6.172-59.095c-4.007-2.156-8.555-3.361-13.293-3.361h-.016c-1.62 0-3.263.143-4.914.435z"
              fill="url(#g)"/>
        <path d="m173.643 868.801c5.711-5.392 12.506-8.787 19.852-9.419 36.228 2.7 66.973 62.839 79.677 140.618h10.581c-11.438-83.398-43.415-149.227-81.421-152.06-11.67 1.004-21.958 8.955-28.689 20.861z"
              fill="url(#h)"/>
        <path d="m145.111 914.415c-.012.611-.041 1.22-.104 1.826l-8.742 83.759h139.68c-11.307-80.987-43.394-140.062-81.566-142.907-20.378 1.754-48.665 29.022-49.268 57.322z"
              fill="url(#i)"/>
        <path d="m142.416 941.064-6.151 58.936h92.568c0-32.859-34.066-59.496-76.087-59.496-3.506 0-6.95.201-10.33.56z"
              fill="url(#j)"/>
        <path d="m257.437 784.698v45.021c0 18.846 108.087 34.125 241.419 34.125s241.418-15.279 241.418-34.125v-45.021z"
              fill="url(#k)"/>
    </g>
    <path d="m257.437 784.699c0 18.834 108.176 34.126 241.419 34.126 133.242 0 241.418-15.292 241.418-34.126 0-18.835-108.176-34.127-241.418-34.127-133.243 0-241.419 15.292-241.419 34.127z"
          fill="url(#l)"/>
    <path d="m128.146 437.643c0 205.685 166.741 372.425 372.426 372.425s372.426-166.74 372.426-372.425-166.741-372.425-372.426-372.425-372.426 166.74-372.426 372.425z"
          fill="url(#m)" fill-rule="nonzero"/>
    <path d="m644.165 93.924c-44.191-18.483-92.696-28.707-143.593-28.707-51.334 0-100.241 10.389-144.737 29.174v148.172h288.33z"
          fill="url(#n)" fill-rule="nonzero" opacity=".57"/>
    <path d="m379.863 67.147v175.416h240.275v-175.787c-37.679-12.139-77.851-18.721-119.566-18.721-42.137 0-82.701 6.717-120.709 19.092z"
          fill="url(#o)" fill-rule="nonzero"/>
    <path d="m156.75 437.643c0 179.777 153.934 325.515 343.822 325.515 189.887 0 343.821-145.738 343.821-325.515s-153.934-325.515-343.821-325.515c-189.888 0-343.822 145.738-343.822 325.515z"
          fill="url(#p)" fill-rule="nonzero"/>
    <path d="m228.833 461.099c0 149.761 121.406 271.166 271.167 271.166s271.167-121.405 271.167-271.166c0-149.762-121.406-271.167-271.167-271.167s-271.167 121.405-271.167 271.167z"
          fill="url(#q)" fill-rule="nonzero"/>
    <path d="m500 624.421c-31.285 0-61.065-7.652-88.101-21.446 16.006 38.629 49.436 65.218 88.101 65.218s72.095-26.589 88.1-65.218c-27.036 13.794-56.815 21.446-88.1 21.446z"
          fill="url(#s)" fill-rule="nonzero"/>
    <path d="m544.819 456.594c-3.776 4.653 1.037 11.255 6.822 9.394 13.375-4.304 27.531-6.616 42.18-6.616 14.651 0 28.806 2.312 42.181 6.616 5.785 1.861 10.598-4.741 6.822-9.394-12.001-14.782-29.505-24.1-49.003-24.1s-37.001 9.318-49.002 24.1z"
          fill="url(#t)" fill-rule="nonzero"/>
    <path d="m374.142 455.378c0 28.416 14.355 51.487 32.037 51.487 17.681 0 32.036-23.071 32.036-51.487 0-28.417-14.355-51.488-32.036-51.488-17.682 0-32.037 23.071-32.037 51.488z"
          fill="url(#u)"/>
    <path d="m500.572 290.237c184.362 0 334.82 72.65 343.42 163.886.258-5.185.402-10.398.402-15.643 0-180.239-153.935-326.352-343.822-326.352s-343.822 146.113-343.822 326.352c0 5.245.144 10.458.402 15.643 8.601-91.236 159.058-163.886 343.42-163.886z"
          fill="url(#v)" fill-rule="nonzero" opacity=".9"/>
    <path d="m124.161 372.998c-7.91 0-14.321 6.411-14.321 14.321v74.332c0 7.91 6.411 14.321 14.321 14.321h39.454v-102.974z"
          fill="url(#x)" fill-rule="nonzero"/>
    <path d="m836.384 372.998v102.974h39.455c7.909 0 14.321-6.411 14.321-14.321v-74.332c0-7.91-6.412-14.321-14.321-14.321z"
          fill="url(#y)" fill-rule="nonzero"/>
</svg>